<?xml version="1.0" standalone="no"?>
<!DOCTYPE svg PUBLIC "-//W3C//DTD SVG 1.1//EN" "http://www.w3.org/Graphics/SVG/1.1/DTD/svg11.dtd" >
<!--
2013-9-30: Created.
-->
<svg>
<metadata>
Created by iconfont
</metadata>
<defs>

<font id="iconfont" horiz-adv-x="1024" >
  <font-face
    font-family="iconfont"
    font-weight="500"
    font-stretch="normal"
    units-per-em="1024"
    ascent="896"
    descent="-128"
  />
    <missing-glyph />
    
    <glyph glyph-name="sh" unicode="&#58913;" d="M354.40128 896c-87.04 0-157.44-70.55872-157.44-157.59872v-275.68128H78.72c-21.6576 0-39.36256-17.69984-39.36256-39.36256v-236.31872c0-21.6576 17.69984-39.35744 39.36256-39.35744h118.24128v-118.08256c0-87.04 70.4-157.59872 157.44-157.59872h472.63744c87.04 0 157.59872 70.55872 157.59872 157.59872V580.9664c0 41.74848-38.9888 81.93024-107.52 149.27872l-29.11744 29.12256L818.87744 788.48C751.5392 857.0112 711.39328 896 669.59872 896H354.4064z m0-78.72h287.20128c28.35456-7.0912 27.99616-42.1376 27.99616-76.8v-120.16128c0-21.6576 17.69984-39.35744 39.36256-39.35744h118.07744c39.38816 0 78.87872 0.0256 78.87872-39.36256v-512c0-43.32032-35.55328-78.87872-78.87872-78.87872H354.4064c-43.32544 0-78.72 35.5584-78.72 78.87872v118.08256h393.91744c21.66272 0 39.36256 17.69472 39.36256 39.35744V423.35744c0 21.66272-17.69984 39.36256-39.36256 39.36256H275.68128V738.40128c0 43.32032 35.39456 78.87872 78.72 78.87872z m-94.72-426.72128c17.28 0 32.64-3.2 46.08-9.6l-7.68-18.23744c-13.44 5.76-26.24 8.63744-38.4 8.63744-10.24 0-17.92-2.23744-23.04-6.71744s-7.68-10.56256-7.68-18.24256c0-8.96 1.92-15.67744 5.76-20.15744 4.48-3.84 15.03744-9.6 31.67744-17.28 17.28-7.04 28.48256-14.40256 33.60256-22.08256 5.76-7.04 8.63744-16 8.63744-26.88 0-14.72-5.12-26.55744-15.36-35.51744s-24.96-13.44-44.16-13.44c-18.56 0-33.28 2.56-44.16 7.68v21.12c15.36-6.4 30.08-9.6 44.16-9.6 12.8 0 22.08256 2.23744 27.84256 6.71744 6.4 4.48 9.6 11.52 9.6 21.12 0 7.68-2.24256 14.08-6.72256 19.2-3.2 3.2-15.03744 9.28256-35.51744 18.24256-13.44 6.4-23.04 13.44-28.8 21.12s-8.64256 17.59744-8.64256 29.75744c0 13.44 4.48 24.00256 13.44 31.68256 9.6 8.32 22.72256 12.47744 39.36256 12.47744z m84.48-1.92h22.07744v-73.91744h79.68256V388.63872h23.04v-175.67744h-23.04V294.55359999999996H366.2336v-81.59744H344.1664V388.63872z"  horiz-adv-x="1024" />

    
    <glyph glyph-name="php" unicode="&#59606;" d="M698.19960889 871.53550222v-208.00512h210.2272z m3.68753778-417.64067555h110.31438222v-37.13365334h-110.31438222z m-485.36120889 0h110.31438222v-37.13365334h-110.31438222zM674.87061333 593.44668445a46.63523555 46.63523555 0 0 0-46.51804444 46.66026666V896H162.94115555a69.75260445 69.75260445 0 0 1-69.84704-69.84817778v-884.30364444a69.75260445 69.75260445 0 0 1 69.84817778-69.84817778H861.05884445a69.75260445 69.75260445 0 0 1 69.84704 69.84817778V593.44554667zM381.98385778 402.31822222a36.96867555 36.96867555 0 0 0-36.75477333-36.68423111H216.52593778V247.61457778H161.3824V504.99697778h183.84782222a36.96867555 36.96867555 0 0 0 36.75591111-36.66033778z m242.68117333-154.70364444h-55.14467556V365.63399111H459.20711111V247.61457778h-55.14581333V504.99697778H459.20711111v-88.23580445h110.31324444v88.23580445h55.14467556zM867.34620445 402.31822222a36.96867555 36.96867555 0 0 0-36.77980445-36.68423111H701.88714667V247.61457778h-55.14467556V504.99697778H830.5664a36.96867555 36.96867555 0 0 0 36.75591111-36.66033778z"  horiz-adv-x="1024" />

    
    <glyph glyph-name="css" unicode="&#58900;" d="M354.40128 896c-87.04 0-157.44-70.55872-157.44-157.59872v-275.68128H78.72c-21.6576 0-39.36256-17.69984-39.36256-39.36256v-236.31872c0-21.6576 17.69984-39.35744 39.36256-39.35744h118.24128v-118.08256c0-87.04 70.4-157.59872 157.44-157.59872h472.63744c87.04 0 157.59872 70.55872 157.59872 157.59872V580.9664c0 41.74848-38.9888 81.93024-107.52 149.27872l-29.11744 29.12256L818.87744 788.48C751.5392 857.0112 711.39328 896 669.59872 896H354.4064z m0-78.72h287.20128c28.35456-7.0912 27.99616-42.1376 27.99616-76.8v-120.16128c0-21.6576 17.69984-39.35744 39.36256-39.35744h118.07744c39.38816 0 78.87872 0.0256 78.87872-39.36256v-512c0-43.32032-35.55328-78.87872-78.87872-78.87872H354.4064c-43.32544 0-78.72 35.5584-78.72 78.87872v118.08256h393.91744c21.66272 0 39.36256 17.69472 39.36256 39.35744V423.35744c0 21.66272-17.69984 39.36256-39.36256 39.36256H275.68128V738.40128c0 43.32032 35.39456 78.87872 78.72 78.87872zM246.55872 390.55872c17.92 0 33.28-3.2 46.08-9.6l-9.6-19.2c-12.16 6.4-24.32 9.6-36.48 9.6-16.64 0-30.39744-6.4-41.27744-19.2-10.24-12.16-15.36-29.44-15.36-51.84 0-23.04 4.79744-40.63744 14.39744-52.79744 9.6-11.52 23.68-17.28 42.24-17.28 10.24 0 23.36256 2.23744 39.36256 6.71744v-19.2c-11.52-4.48-25.92256-6.71744-43.20256-6.71744-23.68 0-42.24 7.35744-55.68 22.07744-13.44 15.36-20.15744 38.08256-20.15744 68.16256 0 28.16 7.04 49.92 21.12 65.28 14.72 16 34.23744 23.99744 58.55744 23.99744z m120.00256 0c17.28 0 32.64-3.2 46.08-9.6l-7.68-18.23744c-13.44 5.76-26.24 8.63744-38.4 8.63744-10.24 0-17.92-2.23744-23.04-6.71744s-7.68-10.56256-7.68-18.24256c0-8.96 1.92-15.67744 5.76-20.15744 4.48-3.84 15.03744-9.6 31.67744-17.28 17.28-7.04 28.48256-14.40256 33.60256-22.08256 5.76-7.04 8.63744-16 8.63744-26.88 0-14.72-5.12-26.55744-15.36-35.51744s-24.96-13.44-44.16-13.44c-18.56 0-33.28 2.56-44.16 7.68v21.12c15.36-6.4 30.08-9.6 44.16-9.6 12.8 0 22.08256 2.23744 27.84256 6.71744 6.4 4.48 9.6 11.52 9.6 21.12 0 7.68-2.24256 14.08-6.72256 19.2-3.2 3.2-15.03744 9.28256-35.51744 18.24256-13.44 6.4-23.04 13.44-28.8 21.12s-8.64256 17.59744-8.64256 29.75744c0 13.44 4.48 24.00256 13.44 31.68256 9.6 8.32 22.72256 12.47744 39.36256 12.47744z m127.67744 0c17.28 0 32.64-3.2 46.08-9.6l-7.68-18.23744c-13.44 5.76-26.24 8.63744-38.4 8.63744-10.24 0-17.92-2.23744-23.04-6.71744s-7.68-10.56256-7.68-18.24256c0-8.96 1.92-15.67744 5.76-20.15744 4.48-3.84 15.04256-9.6 31.68256-17.28 17.28-7.04 28.47744-14.40256 33.59744-22.08256 5.76-7.04 8.64256-16 8.64256-26.88 0-14.72-5.12-26.55744-15.36-35.51744s-24.96-13.44-44.16-13.44c-18.56 0-33.28 2.56-44.16 7.68v21.12c15.36-6.4 30.08-9.6 44.16-9.6 12.8 0 22.07744 2.23744 27.83744 6.71744 6.4 4.48 9.6 11.52 9.6 21.12 0 7.68-2.23744 14.08-6.71744 19.2-3.2 3.2-15.04256 9.28256-35.52256 18.24256-13.44 6.4-23.04 13.44-28.8 21.12s-8.63744 17.59744-8.63744 29.75744c0 13.44 4.48 24.00256 13.44 31.68256 9.6 8.32 22.71744 12.47744 39.35744 12.47744z"  horiz-adv-x="1024" />

    
    <glyph glyph-name="cpp" unicode="&#59244;" d="M978.23226031 570.56006437L716.78912656 846.63441937c-9.11453156 9.45033-21.63501937 17.31760969-34.77913218 17.31760969H127.94243469C74.98221031 864 32 816.22066781 32 763.5482709400001v-334.07155688c0-26.38416937 21.49110562-47.73136125 47.97121687-47.73136125 26.52808312 0 47.97121687 21.34719188 47.97121782 47.73136125v286.38816657c0 26.2882275 21.49110562 52.624425 47.97121687 52.62442593h431.74095563v-195.81850875c0-52.76833875 42.98221031-90.52168688 95.94243468-90.52168687h191.88486938v-52.67239688c0-26.38416937 21.49110562-47.73136125 47.97121687-47.73136125 26.52808312 0 47.97121687 21.34719188 47.97121688 47.73136125V537.65180906c0 12.23266031-4.70117906 23.98560844-13.19208469 32.90825532M895.48191125 143.13651844000003a47.82730406 47.82730406 0 0 1-47.97121781 47.73136125h-47.97121688v-95.4627225h47.97121688c26.52808312 0 47.97121687 21.34719188 47.97121781 47.73136125m95.94243375 4.98900656a143.52988219 143.52988219 0 0 0-143.91365156-143.19408375h-47.97121688v-52.67239687c0-26.38416937-21.44313375-47.73136125-47.97121781-47.73136125-26.48011219 0-47.97121687 21.34719188-47.97121687 47.73136125v286.34019562c0 26.33619844 21.49110562 52.67239687 47.97121687 52.67239688h95.94243469c79.48830656 0 143.91365156-64.08954656 143.91365156-143.14611188m-431.74095469-4.98900656a47.82730406 47.82730406 0 0 1-47.97121781 47.73136125H463.74095562v-95.4627225h47.97121688c26.52808312 0 47.97121687 21.34719188 47.97121781 47.73136125m95.94243375 4.98900656a143.52988219 143.52988219 0 0 0-143.91365156-143.19408375H463.74095562v-52.67239687c0-26.38416937-21.44313375-47.73136125-47.97121781-47.73136125-26.48011219 0-47.97121687 21.34719188-47.97121687 47.73136125v286.34019562c0 26.33619844 21.49110562 52.67239687 47.97121687 52.67239688h95.94243469c79.48830656 0 143.91365156-64.08954656 143.91365156-143.14611188m-527.68338937-47.73136125c0-52.67239687 42.98221031-95.4627225 95.94243468-95.4627225h47.97121688c26.52808312 0 47.97121687-21.29922 47.97121781-47.73136125 0-26.33619844-21.44313375-47.68339031-47.97121781-47.68339031H223.88486937c-106.01639062 0-191.88486937 85.4367375-191.88486937 190.87747406 0 105.39276469 85.86847875 190.925445 191.88486937 190.92544406h47.97121688c26.52808312 0 47.97121687-21.39516281 47.97121781-47.77933218 0-26.33619844-21.44313375-47.68339031-47.97121781-47.68338938H223.88486937c-52.96022344 0-95.94243469-42.69438375-95.94243468-95.4627225"  horiz-adv-x="1024" />

    
    <glyph glyph-name="code" unicode="&#59033;" d="M869.56139-96.95223799999997l-0.448112-0.256064-0.768192-0.32008c-16.004001-18.692673-38.473618-30.407602-63.11978-30.407602l-586.386597 0c-24.646162 0-47.115779 11.714929-63.631908 30.727682l0 0.256064-0.256064-0.256064C138.434609-78.00350100000003 128.384096-51.18079499999999 128.384096-22.437608999999952L128.384096 790.437609c0 28.807202 10.050513 55.053763 26.566642 74.002501C171.722931 883.772943 194.128532 896 218.83871 896l399.587897 0c8.898225 0 17.732433-4.737184 23.941985-11.714929l243.452863-284.67917c6.72168-8.386097 9.794449-18.180545 9.794449-28.487122l0-0.576144 0-593.044261C895.615904-51.18079499999999 885.565391-77.42735700000003 869.56139-96.95223799999997zM396.803201 377.086272C408.646162 385.472368 412.615154 404.357089 405.317329 417.608402c-6.977744 14.339585-23.045761 18.884721-34.888722 10.498625L202.130533 313.134284c-15.491873-11.522881-16.068017-39.113778 0-50.700675l168.234059-115.292823c11.842961-8.386097 27.910978-4.16104 34.888722 10.114529 7.297824 13.955489 3.328832 32.136034-8.514129 40.522131L265.634409 287.911978 396.803201 377.086272zM584.498125 509.91948C571.182796 515.872968 556.523131 508.191048 551.08177 493.147287l-130.592648-389.793448c-5.185296-14.659665 1.216304-32.136034 14.275569-38.089522C448.464116 58.99074800000005 462.995749 66.67266800000004 468.501125 82.03650900000002l130.592648 390.113528C603.95899 486.809702 597.237309 503.645911 584.498125 509.91948zM614.265566 417.608402C606.967742 404.357089 610.616654 385.472368 622.779695 377.086272l131.168792-89.174294-131.168792-90.19855c-12.163041-8.386097-15.811953-26.566642-8.514129-40.522131 7.297824-14.339585 23.109777-18.564641 34.952738-10.114529l167.593898 115.292823c17.348337 11.586897 16.708177 39.177794 0 50.700675L649.218305 428.107027C637.375344 436.493123 621.563391 431.947987 614.265566 417.608402zM640.384096 769.12028l0-148.709177c0-11.650913 4.993248-22.917729 12.035009-30.663666L653.315329 588.531133c8.258065-8.322081 19.716929-13.379345 32.072018-13.379345l146.852713 0L640.384096 769.12028z"  horiz-adv-x="1024" />

    
    <glyph glyph-name="html" unicode="&#58903;" d="M354.40128 896c-87.04 0-157.44-70.55872-157.44-157.59872v-275.68128H78.72c-21.6576 0-39.36256-17.69984-39.36256-39.36256v-236.31872c0-21.6576 17.69984-39.35744 39.36256-39.35744h118.24128v-118.08256c0-87.04 70.4-157.59872 157.44-157.59872h472.63744c87.04 0 157.59872 70.55872 157.59872 157.59872V580.9664c0 41.74848-38.9888 81.93024-107.52 149.27872l-29.11744 29.12256L818.87744 788.48C751.5392 857.0112 711.39328 896 669.59872 896H354.4064z m0-78.72h287.20128c28.35456-7.0912 27.99616-42.1376 27.99616-76.8v-120.16128c0-21.6576 17.69984-39.35744 39.36256-39.35744h118.07744c39.38816 0 78.87872 0.0256 78.87872-39.36256v-512c0-43.32032-35.55328-78.87872-78.87872-78.87872H354.4064c-43.32544 0-78.72 35.5584-78.72 78.87872v118.08256h393.91744c21.66272 0 39.36256 17.69472 39.36256 39.35744V423.35744c0 21.66272-17.69984 39.36256-39.36256 39.36256H275.68128V738.40128c0 43.32032 35.39456 78.87872 78.72 78.87872zM75.03872 402.40128h22.08256v-73.92256H176.7936V402.40128h23.04v-175.68256h-23.04V308.32640000000004H97.1264v-81.60256h-22.08256V402.40128z m151.68 0h121.92256v-20.16256h-49.92v-155.52H276.6336v155.52h-49.92v20.16256z m148.80256 0h32.64l49.92-143.04256h0.95744l48.96256 143.04256h33.59744v-175.68256h-22.07744v106.56256c0 10.88 0.31744 26.55744 0.95744 47.03744h-0.95744l-52.80256-153.6h-19.2l-52.79744 153.6h-0.96256c1.28-22.4 1.92-38.71744 1.92-48.95744v-104.64256h-20.15744V402.40128z m214.07744 0h22.08256v-155.52h69.12v-20.16256h-91.20256V402.40128z"  horiz-adv-x="1024" />

    
    <glyph glyph-name="JS" unicode="&#58906;" d="M354.40128 896c-87.04 0-157.44-70.55872-157.44-157.59872v-275.68128H78.72c-21.6576 0-39.36256-17.69984-39.36256-39.36256v-236.31872c0-21.6576 17.69984-39.35744 39.36256-39.35744h118.24128v-118.08256c0-87.04 70.4-157.59872 157.44-157.59872h472.63744c87.04 0 157.59872 70.55872 157.59872 157.59872V580.9664c0 41.74848-38.9888 81.93024-107.52 149.27872l-29.11744 29.12256L818.87744 788.48C751.5392 857.0112 711.39328 896 669.59872 896H354.4064z m0-78.72h287.20128c28.35456-7.0912 27.99616-42.1376 27.99616-76.8v-120.16128c0-21.6576 17.69984-39.35744 39.36256-39.35744h118.07744c39.38816 0 78.87872 0.0256 78.87872-39.36256v-512c0-43.32032-35.55328-78.87872-78.87872-78.87872H354.4064c-43.32544 0-78.72 35.5584-78.72 78.87872v118.08256h393.91744c21.66272 0 39.36256 17.69472 39.36256 39.35744V423.35744c0 21.66272-17.69984 39.36256-39.36256 39.36256H275.68128V738.40128c0 43.32032 35.39456 78.87872 78.72 78.87872zM409.7536 394.08128c17.28 0 32.64-3.2 46.08-9.6l-7.68-18.24256c-13.44 5.76-26.24 8.64256-38.4 8.64256-10.24 0-17.92-2.24256-23.04-6.72256s-7.68-10.55744-7.68-18.23744c0-8.96 1.92-15.68256 5.76-20.16256 4.48-3.84 15.04256-9.6 31.68256-17.28 17.28-7.04 28.47744-14.39744 33.59744-22.07744 5.76-7.04 8.64256-16 8.64256-26.88 0-14.72-5.12-26.56256-15.36-35.52256s-24.96-13.44-44.16-13.44c-18.56 0-33.28 2.56-44.16 7.68v21.12c15.36-6.4 30.08-9.6 44.16-9.6 12.8 0 22.07744 2.24256 27.83744 6.72256 6.4 4.48 9.6 11.52 9.6 21.12 0 7.68-2.23744 14.08-6.71744 19.2-3.2 3.2-15.04256 9.27744-35.52256 18.23744-13.44 6.4-23.04 13.44-28.8 21.12s-8.63744 17.60256-8.63744 29.76256c0 13.44 4.48 23.99744 13.44 31.67744 9.6 8.32 22.71744 12.48256 39.35744 12.48256z m-111.36-1.92h22.08256v-172.8c0-16-4.16256-28.16-12.48256-36.48-8.32-8.96-20.15744-13.44-35.51744-13.44-7.04 0-13.12256 0.95744-18.24256 2.87744v19.2c6.4-1.28 12.8-1.92 19.2-1.92 8.32 0 14.40256 2.24256 18.24256 6.72256 4.48 4.48 6.71744 11.19744 6.71744 20.15744V392.16128z"  horiz-adv-x="1024" />

    
    <glyph glyph-name="json" unicode="&#58894;" d="M742.4 140.544H564.770133c-14.4384 0-26.112-12.475733-26.112-27.869867v-168.618666h28.433067L742.4 135.560533v4.983467zM742.4 196.266667v88.183466c0 15.189333 11.4688 27.477333 25.6 27.477334s25.6-12.288 25.6-27.477334v-160.136533c0-7.2192-2.645333-14.1312-7.338667-19.285333L596.087467-102.7072a24.746667 24.746667 0 0 0-18.261334-8.226133H194.56C129.536-110.933333 76.8-54.306133 76.8 15.547733V752.469333C76.8 822.306133 129.536 878.933333 194.56 878.933333h481.28C740.864 878.933333 793.6 822.306133 793.6 752.452267v-48.930134c0-15.189333-11.4688-27.477333-25.6-27.477333s-25.6 12.288-25.6 27.477333V752.469333c0 39.4752-29.7984 71.492267-66.56 71.492267H194.56c-36.7616 0-66.56-32.017067-66.56-71.509333v-736.887467c0-39.4752 29.7984-71.492267 66.56-71.492267H486.4v168.618667C486.4 158.839467 521.489067 196.266667 564.770133 196.266667H742.4zM289.058133 601.429333h33.3824l-15.581866-153.275733c-2.645333-26.026667-9.437867-45.056-20.4288-57.7536-12.1856-13.329067-29.986133-20.002133-53.674667-20.002133-20.548267 0-35.601067 6.3488-44.868267 19.0464-9.557333 12.6976-13.192533 30.139733-10.939733 52.360533l0.733867 7.304533h33.399466l-0.7168-6.997333c-2.645333-26.0096 6.024533-39.0144 26.282667-39.0144 11.127467 0 19.797333 3.805867 25.668267 11.093333 5.888 7.304533 9.642667 19.0464 11.281066 35.2256l15.4624 152.0128z m144.128 4.437334c23.978667 0 42.257067-5.393067 54.545067-16.503467 13.073067-11.741867 19.473067-30.139733 18.944-54.903467H473.6c-1.4336 13.9776-5.819733 24.132267-12.629333 30.1568-6.775467 6.3488-17.902933 9.198933-32.733867 9.198934-12.8512 0-22.7328-1.911467-30.0032-6.024534-9.045333-4.778667-13.858133-12.6976-14.9504-23.483733-0.9728-9.5232 2.798933-17.4592 11.912533-23.176533 4.027733-2.525867 15.240533-7.287467 33.399467-13.960534 26.709333-9.506133 43.6224-17.134933 51.0976-22.203733 16.503467-11.741867 23.7056-27.938133 21.572267-48.878933-2.048-20.309333-10.837333-36.488533-26.299734-48.2304-15.428267-11.434667-36.3008-17.4592-62.276266-17.4592-25.105067 0-44.253867 5.393067-57.1392 16.196266-15.7696 13.312-23.04 34.269867-21.538134 63.146667h33.109334c0.512-17.134933 4.693333-29.525333 12.8-36.8128 7.338667-6.3488 19.2512-9.8304 36.096-9.8304 14.848 0 27.101867 2.850133 36.215466 8.2432 9.147733 5.717333 14.455467 13.0048 15.428267 22.528 1.211733 12.066133-4.369067 21.589333-16.213333 28.5696-3.771733 2.218667-16.384 7.287467-38.161067 14.916267-24.200533 8.874667-39.253333 15.223467-44.868267 19.029333-14.626133 10.478933-20.7872 25.7024-18.7392 45.704533 2.030933 19.985067 11.0592 35.84 27.630934 47.274667 15.394133 11.093333 33.928533 16.503467 55.893333 16.503467z m207.223467 0c31.112533 0 54.528-11.093333 70.212267-33.621334 14.9504-21.282133 20.650667-49.527467 17.1008-84.4288-3.549867-34.901333-14.9504-62.8224-34.235734-84.087466-20.241067-22.2208-45.909333-33.3312-77.0048-33.3312-31.402667 0-54.784 11.434667-70.212266 33.6384-14.933333 21.589333-20.360533 49.5104-16.878934 83.797333 3.515733 34.577067 14.626133 62.498133 33.962667 84.0704C583.338667 594.773333 609.006933 605.866667 640.392533 605.866667z m-3.242667-32.682667c-21.128533 0-38.1952-7.936-51.5072-23.808-12.680533-15.223467-20.1728-35.5328-22.818133-61.559467-2.6112-25.7024 0.750933-46.011733 10.325333-61.252266 9.847467-15.530667 25.582933-23.466667 46.6944-23.466667 21.128533 0 38.161067 7.611733 51.0976 22.528 12.629333 14.916267 20.445867 35.5328 23.159467 62.190933 2.7136 26.658133-0.8704 47.616-10.4448 62.839467-9.864533 15.223467-25.3952 22.528-46.506667 22.528z m131.84 28.245333h33.3824l84.1216-163.4304h1.143467l16.605867 163.4304h33.672533l-23.04-226.577066h-32.529067L797.354667 540.501333h-1.143467l-16.8448-165.649066H745.984l23.04 226.577066z"  horiz-adv-x="1024" />

    
    <glyph glyph-name="unknown" unicode="&#59135;" d="M717.25511111 893.72444445H114.34666667v-1019.4488889h795.30666666V700.64355555L717.25511111 893.72444445z m4.096-50.7448889l136.07822222-137.6711111H721.35111111v137.6711111z m160.42666667-940.82844444H142.44977778V867.21422222h546.24711111v-194.56H881.77777778v-770.50311111z"  horiz-adv-x="1024" />

    
    <glyph glyph-name="newFIle" unicode="&#59233;" d="M672.15648654 616.22122155H353.54851555v50.92271559c-0.11366627 24.43835619-20.11901952 44.44370944-44.44370944 44.55737571H127.01063282c-24.32468992-0.11366627-44.44370944-20.11901952-44.44370944-44.55737571v-145.94813952h543.44085163c7.61567346 35.69136754 23.52902258 68.20006457 46.14871153 95.02542393zM620.89277099 476.07008825c0 4.88767147 0.45466738 9.54800925 0.68199992 14.3220133H34.82687829c-20.80101945-0.56833365-31.48569714-12.04867869-32.05403079-29.32602766 0-3.06900309 0.45466738-6.59267243 1.364001-10.23001032l90.25141987-348.84333226c5.79700509-24.21102365 34.21369913-46.1487104 58.99305643-45.80771044h582.88322219c24.89302357-0.56833365 53.30971762 21.48302051 59.1067227 45.80771044l40.23803904 155.83714872c-118.66811278 1.93233465-214.71653774 99.00376064-214.71653774 218.24020822zM839.47397917 657.70959417c-100.36776277 0-181.75317333-81.38541056-181.75317334-181.63950592 0-100.36776277 81.38541056-181.75317333 181.75317334-181.75317334s181.75317333 81.61274425 181.75317333 181.75317334-81.38541056 181.63950706-181.75317333 181.63950592z m90.47875242-206.98719687h-65.13106148v-65.13106261c0-14.09467961-11.36667762-25.34769095-25.57502464-25.34769096-14.09467961 0-25.34769095 11.25301021-25.34769094 25.34769096v65.13106261h-65.13106262c-13.86734706 0-25.34769095 11.36667762-25.34768981 25.34769095 0 13.86734706 11.48034389 25.57502464 25.34768981 25.5750235h65.13106262v65.01739634c0 14.09467961 11.48034389 25.34769095 25.34769094 25.34768981 14.20834702 0 25.57502464-11.36667762 25.57502464-25.34768981V501.64511175h65.13106148c14.09467961 0 25.34769095-11.48034389 25.34769095-25.5750235s-11.36667762-25.34769095-25.34769095-25.34769095z"  horiz-adv-x="1024" />

    
    <glyph glyph-name="sql" unicode="&#58920;" d="M128 512h384V896h384v-1024H128V512z m1.408 85.312L426.688 895.744v-298.432h-297.28z m119.488-472.704c1.6-18.496 8.384-33.728 20.416-45.76 11.968-11.968 33.536-17.92 64.704-17.92 17.792 0 32.512 2.56 44.16 7.68a60.992 60.992 0 0 1 27.264 22.528 58.112 58.112 0 0 1 9.728 32.512 51.52 51.52 0 0 1-7.296 27.072 55.936 55.936 0 0 1-23.424 20.352c-10.688 5.44-28.416 10.88-53.12 16.192-10.048 2.048-16.384 4.288-19.008 6.72-2.752 2.368-4.16 4.992-4.16 7.872a12.8 12.8 0 0 0 4.992 10.24c3.328 2.752 8.32 4.16 14.912 4.16 8 0 14.272-1.92 18.816-5.632 4.48-3.776 7.488-9.728 8.96-17.984l53.312 3.136c-2.304 18.944-9.6 32.832-21.952 41.536-12.288 8.704-30.08 13.056-53.504 13.056-19.136 0-34.112-2.368-45.12-7.168A54.336 54.336 0 0 1 264 223.42399999999998a48 48 0 0 1-8.192-26.688 44.8 44.8 0 0 1 16-35.392c10.56-9.216 28.288-16.64 53.12-22.208 15.168-3.328 24.832-6.912 28.992-10.624a16.832 16.832 0 0 0 6.272-12.8 17.024 17.024 0 0 0-6.592-13.12 27.712 27.712 0 0 0-18.688-5.76c-10.88 0-19.2 3.776-24.96 11.2A41.088 41.088 0 0 0 302.72 128l-53.888-3.392z m391.36 122.624V64H785.28v45.12h-88.32V247.23199999999997h-56.704z m-42.176-156.48c13.376 16.256 20.032 37.888 20.032 65.024 0 30.4-8.32 53.76-24.832 70.08-16.512 16.384-40 24.512-70.4 24.512-29.888 0-53.12-8.32-69.76-25.024-16.64-16.768-24.896-40.192-24.896-70.4 0-31.04 9.472-55.168 28.48-72.32 16.128-14.528 38.08-21.76 65.92-21.76 18.816 0 34.496 2.688 46.976 8.128 3.072-2.688 8.512-6.656 16.256-11.904 7.744-5.312 15.552-9.856 23.488-13.696l15.744 31.744a152.832 152.832 0 0 0-13.12 6.4 264.768 264.768 0 0 0-13.888 9.216z m-43.328 28.992c4.48 8.064 6.72 20.16 6.72 36.224 0 18.56-3.456 31.744-10.304 39.68a35.712 35.712 0 0 1-28.416 11.84 34.496 34.496 0 0 1-27.392-12.16c-7.04-8.064-10.496-20.672-10.496-37.824 0-20.032 3.392-34.048 10.24-42.112 6.848-8.128 16.192-12.16 28.16-12.16 3.84 0 7.424 0.384 10.88 1.152a70.08 70.08 0 0 1-22.528 12.992l8.832 20.352a48.128 48.128 0 0 0 11.712-3.328c2.816-1.344 8.256-4.864 16.32-10.496 1.92-1.344 3.968-2.752 6.272-4.16z"  horiz-adv-x="1024" />

    
    <glyph glyph-name="folder" unicode="&#59162;" d="M0 576 1024 576 960-64 64-64 0 576ZM928 704 960 640 64 640 128 768 480 768 512 704 928 704Z"  horiz-adv-x="1024" />

    
    <glyph glyph-name="recent" unicode="&#59076;" d="M202.34030693 416.17592326c-1.60879617-11.26157314-1.60879617-20.91435011-1.60879617-32.17592326h-96.5277698c0 11.26157314 0 20.91435011 1.60879616 32.17592326h96.52776981z m376.45830217 193.05553958h-48.26388488c-12.87036929 0-24.13194244-11.26157314-24.13194246-24.13194246v-210.75229737c0-6.43518466 3.21759233-12.87036929 6.43518468-17.69675778l135.13887769-135.13887772c9.65277699-9.65277699 24.13194244-9.65277699 33.78471942 0L715.54628299 255.29630697000005c9.65277699 9.65277699 9.65277699 24.13194244 0 33.78471941l-112.61573143 114.22452757V585.0995203800001c0 12.87036929-11.26157314 24.13194244-24.13194246 24.13194246zM554.66666666 834.4629257c-238.10183216 0-432.76616788-185.01155876-448.85412954-418.28700244 0-4.82638849-1.60879617-11.26157314-1.60879616-16.08796163h-72.39582735c-20.91435011 0-32.17592326-24.13194244-19.30555394-38.61110791l120.65971223-146.40045086c9.65277699-11.26157314 27.34953477-11.26157314 37.00231177 0l120.65971223 146.40045086c12.87036929 16.08796163 1.60879617 38.61110791-19.30555395 38.61110791H200.73151076v16.08796163c16.08796163 180.18517028 168.92359714 321.75923265 352.32635973 321.75923264 209.14350122 0 374.84950602-181.79396643 352.32635974-394.15505997-16.08796163-152.8356355-160.87961633-297.62729018-315.32404798-312.10645566-114.22452758-11.26157314-222.01387052 30.5671271-297.6272902 112.61573141-9.65277699 11.26157314-22.52314628 17.69675779-35.39351557 1.60879616l-38.61110793-46.65508871c-8.04398081-9.65277699-1.60879617-16.08796163 6.43518466-24.13194246 86.87499281-91.70138129 205.92590889-143.18285852 334.62960194-141.57406237 231.66664751 3.21759233 426.33098325 186.62035492 442.41894486 418.28700244C1022.82635014 614.05785133 813.68284892 834.4629257 554.66666666 834.4629257z"  horiz-adv-x="1024" />

    
    <glyph glyph-name="delete" unicode="&#58922;" d="M713.03417887 694.68918518l0 109.65500633c0 45.43372402-28.47374996 73.10333755-74.96747266 73.10333755L385.89674291 877.44752906c-46.42061972 0-74.93092057-27.66961354-74.93092056-73.10333755l0-109.65500633-219.31001264 0 0-73.10333754 73.10333754 0 0-621.37837037c0-65.86610725 41.2302826-109.65500633 109.65500633-109.65500633l475.17169527 0c66.85300175 0 109.65500633 40.64545633 109.65500633 109.65500633l0 621.37837037 73.10333753 0 0 73.10333754L713.03417887 694.68918518zM384.06915869 804.34419151l255.86168141 0-1.53516988-109.65500633L384.06915869 694.68918518 384.06915869 804.34419151zM786.13751641-36.34419150999997l-548.27503282 0 0 657.93003915 548.27503282 0L786.13751641-36.34419150999997zM457.17249623 548.48251009l-71.27575453 0-1.82758301-475.17169527 73.10333754 0L457.17249623 548.48251009zM639.93084131 548.48251009l-73.10333754 0 0-475.17169527 73.10333754 0L639.93084131 548.48251009z"  horiz-adv-x="1024" />

    
    <glyph glyph-name="exe" unicode="&#58938;" d="M852.51170608-124.06177185000001h-682.63025778c-29.44508208 0-53.3997037 23.95462163-53.39970371 53.3997037V831.8536059200001c0 29.44508208 23.95462163 53.3997037 53.39970371 53.39970371h417.49951525v-77.6722963H194.15404089v-853.97048888h634.08628622V586.6882844500001h77.6722963v-657.3503526c-0.00121363-29.44386845-23.95583525-53.3997037-53.40091733-53.3997037zM639.42989748 639.1292207500001h266.99851852v-77.6722963h-266.99851852zM638.21626785 886.17809541h77.6722963v-322.92014459h-77.6722963zM655.54325808 839.62083555l61.90117925 46.9031443 188.28856889-248.49552118-61.90117925-46.90435792zM1002.20321185 58.76060917999996H24.02865303c-8.00995555 0-14.56355555 6.5536-14.56355555 14.56355557V406.9169683c0 8.00995555 6.5536 14.56355555 14.56355555 14.56355555h978.17455882c8.00995555 0 14.56355555-6.5536 14.56355556-14.56355555v-333.59280355c0-8.00995555-6.5536-14.56355555-14.56355556-14.56355557zM237.01701215 334.23875792h110.19635674v-29.85528889h-74.27291971v-41.50613333h63.10752712v-30.09680118h-63.10752712v-48.05973334h76.9429049V154.62400000000002h-112.86634193V334.23875792zM466.63331082 247.34287644999995l-47.33155557 86.89588147h39.80583823l17.96171852-36.89434074c4.12634075-8.49419378 8.00995555-17.23232711 13.34992592-28.3977197h1.21362963c4.36906667 11.16539259 8.00995555 19.90352592 11.89357037 28.3977197l16.99081483 36.89434074h37.8640308l-47.33155555-88.59374933 50.48699259-91.02100859h-39.80583822l-20.14746548 39.80705185c-4.61179259 9.22358518-8.73813333 18.68868267-14.07810371 29.61134933h-0.9709037c-4.61179259-10.92266667-8.73813333-20.38897778-13.1072-29.61134933L454.25428859 154.62400000000002h-38.10797037l50.4869926 92.71887645zM635.57176889 334.23875792h110.19514311v-29.85528889h-74.2729197v-41.50613333h63.10874073v-30.09680118h-63.10874073v-48.05973334h76.94290488V154.62400000000002H635.57176889V334.23875792z"  horiz-adv-x="1024" />

    
    <glyph glyph-name="right" unicode="&#58975;" d="M787.314 352.85L295.508-95.33399999999995c-16.138-16.057-42.312-16.057-58.45 0s-16.138 42.107 0 58.162L699.21 383.98 237.058 805.171c-16.138 16.056-16.138 42.107 0 58.163 16.179 16.056 42.312 16.056 58.45 0L787.273 415.15c8.603-8.561 12.288-19.947 11.715-31.13C799.562 372.756 795.876 361.40999999999997 787.314 352.85z"  horiz-adv-x="1024" />

    
    <glyph glyph-name="upload" unicode="&#58979;" d="M864.43804445 442.32476444c0 0-7.13614222 234.83733333-198.42844445 281.51352889S382.52999111 568.95488 380.63672889 563.20227555C378.74346667 557.44967111 369.34997333 560.07111111 369.34997333 560.07111111c-15.29173333 14.49073778-82.72099555 47.76846222-153.57269333 5.09724444-70.77888-42.67121778-45.14702222-123.71740445-45.14702222-123.71740444S65.69984 449.97063111 11.88750222 287.95107555000004c-53.73952-162.16519111 134.78570667-208.11320889 134.78570667-208.11320889l316.46606222 0 0 172.50531556-63.35146666 0L394.25365333 252.34318222000002 389.95740445 252.34318222000002l0 0.29127111c-3.64088889 0-6.5536 2.91271111-6.5536 6.62641778 0 2.18453333 1.16508445 4.07779555 2.9127111 5.31569777l129.68846223 136.38769778c1.82044445 2.03889778 4.36906667 3.42243555 7.35459555 3.42243556 3.05834667 0 5.75260445-1.52917333 7.57304889-3.78652444l128.74183111-135.29543112c0.21845333-0.14563555 0.43690667-0.36408889 0.65536-0.58254222l1.23790222-1.31072-0.43690666 0c0.65536-1.16508445 1.09226667-2.18453333 1.09226666-3.56807111 0-4.07779555-3.2768-7.42741333-7.42741333-7.42741333-0.14563555 0-0.14563555 0.14563555-0.29127111 0.14563555l0-0.29127111L584.74496 252.27036443999998l0-172.50531556 287.26613333 0c0 0 136.97024 34.29717333 149.05799112 175.70929778C1033.30247111 396.88647111 864.43804445 442.32476444 864.43804445 442.32476444z"  horiz-adv-x="1024" />

    
    <glyph glyph-name="share" unicode="&#59006;" d="M710.45120001 219.68213333000006c-33.10933333 0-63.96586667-10.37653333-89.22453334-27.98933333L378.47040001 361.94986667C378.94826667 366.72853333 379.22133334 371.5072 379.22133334 376.42240000000004c0 0.8192-0.13653333 1.57013333-0.13653333 2.38933333l252.45013333 178.51733334c23.3472-13.03893333 50.24426667-20.54826667 78.91626667-20.54826667 89.77066667 0 162.54293333 72.77226667 162.54293333 162.54293333C872.99413334 789.0944 800.29013334 861.86666667 710.45120001 861.86666667c-89.7024 0-162.47466667-72.77226667-162.47466667-162.54293334 0-12.83413333 1.57013333-25.32693333 4.36906667-37.34186666L320.92160001 498.2784C294.02453334 520.12373333 259.75466667 533.23093333 222.41280001 533.23093333c-86.56213333 0-156.74026667-70.17813333-156.74026667-156.80853333 0-86.56213333 70.17813333-156.74026667 156.74026667-156.74026667 37.0688 0 70.92906667 12.9024 97.75786666 34.33813334l235.86133334-165.41013334c-1.4336-8.3968-2.2528-16.93013333-2.2528-25.66826666 0-86.6304 70.17813333-156.80853333 156.74026666-156.80853334 86.6304 0 156.80853333 70.17813333 156.80853334 156.80853334S797.08160001 219.68213333000006 710.45120001 219.68213333000006z"  horiz-adv-x="1024" />

    
    <glyph glyph-name="download" unicode="&#58916;" d="M857.41568797 727.7718300500001c92.87798443-92.46701909 140.96083399-209.5919104 144.65951516-351.37467392-3.69868117-135.2073307-51.78153074-248.22257664-144.65951516-339.86766735-92.46701909-91.6450907-209.5919104-139.31697607-351.37467392-143.01565611-135.2073307 3.69868117-248.22257664 51.37056654-339.86766735 143.01565611-91.6450907 91.6450907-139.31697607 204.66033664-143.01565611 339.86766735 3.69868117 141.37179819 51.37056654 258.90765483 143.01565611 351.37467392 91.6450907 92.87798443 204.66033664 140.96083399 339.86766735 144.65951516C647.82377757 868.73266403 764.94866887 820.64981333 857.41568797 727.7718300500001zM687.68733639 328.31430656c-4.52060957 9.45218446-15.20568775 14.38375822-32.87716295 14.38375822l-101.91920355 0L552.89097102 648.04471125c0 5.75350329-1.64385792 10.68507819-5.34253909 14.79472356-3.69868117 4.10964537-8.21929074 6.16446749-14.38375822 6.16446748l-41.50741789 0c-4.9315749 0-9.86314866-2.05482211-13.56182983-6.16446748-4.10964537-4.10964537-6.16446749-9.04121913-6.16446748-14.79472356l0-305.34664647-101.91920356 0c-17.6714752 0-28.35655225-4.9315749-32.87716295-14.38375822-4.52060957-9.45218446-1.64385792-20.95919104 8.63025493-34.11005554l129.04286208-168.49545785c11.09604238-13.1508645 23.42497849-19.72629731 37.39777252-19.72629731s26.30173013 6.57543282 37.39777252 19.72629731l129.04286208 168.49545785C689.33119545 307.35511552 692.20794709 318.86212209999997 687.68733639 328.31430656z"  horiz-adv-x="1024" />

    
    <glyph glyph-name="login" unicode="&#59120;" d="M774.99354075 384.12136297c0-10.92266667-4.00497778-20.38897778-12.01493334-28.5202963L419.03597037 11.65842963c-7.88859259-7.88859259-17.59762963-12.01493333-28.52029629-12.01493333s-20.38897778 4.00497778-28.5202963 12.01493333c-7.88859259 7.88859259-12.01493333 17.47626667-12.01493333 28.52029629v182.04444445H67.08337778c-10.92266667 0-20.38897778 4.00497778-28.5202963 12.01493333-7.88859259 7.88859259-12.01493333 17.47626667-12.01493333 28.5202963v242.72592592c0 10.92266667 4.00497778 20.38897778 12.01493333 28.5202963 7.88859259 7.88859259 17.47626667 12.01493333 28.5202963 12.01493333h283.13979259v182.04444445c0 10.92266667 4.00497778 20.38897778 12.01493333 28.5202963 7.88859259 7.88859259 17.47626667 12.01493333 28.5202963 12.01493333 10.92266667 0 20.38897778-4.00497778 28.5202963-12.01493333L763.22133333 412.64165925c7.64586667-8.25268148 11.77220741-17.59762963 11.77220742-28.52029628zM997.45185185 606.57967408v-444.91662223c0-50.1229037-17.84035555-93.08539259-53.52106667-128.7661037s-78.52183703-53.52106667-128.7661037-53.52106667H612.97398518c-5.46133333 0-10.31585185 1.94180741-14.19946666 5.94678519-4.00497778 4.00497778-5.94678518 8.73813333-5.94678519 14.19946666 0 1.69908148-0.24272592 5.82542222-0.60681481 12.62174815-0.36408889 6.79632592-0.48545185 12.37902222-0.24272593 16.74808889 0.24272592 4.36906667 0.72817778 9.46631111 1.82044444 14.80628148 1.09226667 5.46133333 3.2768 9.58767408 6.43223705 12.37902223s7.40314075 4.12634075 12.86447407 4.12634074h202.43342222c27.79211852 0 51.57925925 9.8304 71.48278518 29.61256296 19.78216297 19.78216297 29.61256297 43.5693037 29.61256297 71.48278519V606.57967408c0 27.79211852-10.07312592 51.57925925-29.61256297 71.48278517-19.78216297 19.78216297-43.5693037 29.61256297-71.48278518 29.61256297H618.31395555c-1.33499259 0-3.76225185 0.24272592-7.28177777 0.60681481-3.64088889 0.36408889-5.94678518 1.09226667-7.28177778 1.82044445-1.33499259 0.72817778-2.91271111 1.94180741-5.09724445 3.51952593-2.06317037 1.45635555-3.64088889 3.39816297-4.36906666 5.70405926-0.72817778 2.18453333-1.33499259 5.21860741-1.33499259 8.49540741 0 1.69908148-0.24272592 5.82542222-0.60681482 12.62174814s-0.48545185 12.37902222-0.24272593 16.74808889c0.24272592 4.36906667 0.72817778 9.46631111 1.82044445 14.80628148s3.2768 9.58767408 6.43223703 12.37902223 7.40314075 4.12634075 12.86447408 4.12634073h202.43342222c50.1229037 0 93.08539259-17.84035555 128.7661037-53.52106666 35.19525925-35.31662222 53.03561482-78.27911111 53.03561482-128.40201481z"  horiz-adv-x="1024" />

    
    <glyph glyph-name="image" unicode="&#58891;" d="M832 0l-640 0 0 128 192 320 263.00416-320 184.99584 128 0-256zM832 415.98976c0-53.02272-42.98752-96.01024-96.01024-96.01024s-96.01024 42.98752-96.01024 96.01024 42.98752 96.01024 96.01024 96.01024c53.02272 0 96.01024-42.98752 96.01024-96.01024zM917.8112 666.9312c-22.2208 30.28992-53.16608 65.69984-87.18336 99.69664s-69.40672 64.96256-99.69664 87.18336c-51.56864 37.82656-76.5952 42.1888-90.9312 42.1888l-496.00512 0c-44.11392 0-79.99488-35.88096-79.99488-79.99488l0-864.01024c0-44.11392 35.88096-79.99488 79.99488-79.99488l736.01024 0c44.11392 0 79.99488 35.88096 79.99488 79.99488l0 624.00512c0 14.336-4.36224 39.34208-42.1888 90.9312zM785.36704 721.36704c30.69952-30.69952 54.80448-58.38848 72.58112-81.36704l-153.94816 0 0 153.94816c22.97856-17.77664 50.688-41.8816 81.36704-72.58112zM896-48.00512000000003c0-8.66304-7.33184-15.99488-15.99488-15.99488l-736.01024 0c-8.66304 0-15.99488 7.33184-15.99488 15.99488l0 864.01024c0 8.66304 7.33184 15.99488 15.99488 15.99488 0 0 495.96416 0 496.00512 0l0-224.01024c0-17.67424 14.336-32.01024 32.01024-32.01024l224.01024 0 0-624.00512z"  horiz-adv-x="1024" />

    
    <glyph glyph-name="zip" unicode="&#58893;" d="M917.8112 666.9312c-22.20032 30.28992-53.16608 65.69984-87.18336 99.69664s-69.40672 64.96256-99.69664 87.18336c-51.56864 37.82656-76.5952 42.1888-90.9312 42.1888l-496.00512 0c-44.11392 0-79.99488-35.88096-79.99488-79.99488l0-864.01024c0-44.11392 35.88096-79.99488 79.99488-79.99488l736.01024 0c44.11392 0 79.99488 35.88096 79.99488 79.99488l0 624.00512c0 14.336-4.36224 39.34208-42.1888 90.9312l0 0 0 0zM785.36704 721.36704c30.69952-30.69952 54.80448-58.38848 72.58112-81.36704l-153.94816 0 0 153.94816c22.97856-17.77664 50.688-41.8816 81.36704-72.58112l0 0 0 0zM896-48.00512000000003c0-8.66304-7.33184-15.99488-15.99488-15.99488l-736.01024 0c-8.66304 0-15.99488 7.33184-15.99488 15.99488l0 864.01024c0 8.66304 7.33184 15.99488 15.99488 15.99488 0 0 495.96416 0 496.00512 0l0-224.01024c0-17.67424 14.31552-32.01024 32.01024-32.01024l224.01024 0 0-624.00512zM256 832l128 0 0-64-128 0 0 64zM384 768l128 0 0-64-128 0 0 64zM256 704l128 0 0-64-128 0 0 64zM384 640l128 0 0-64-128 0 0 64zM256 576l128 0 0-64-128 0 0 64zM384 512l128 0 0-64-128 0 0 64zM256 448l128 0 0-64-128 0 0 64zM384 384l128 0 0-64-128 0 0 64zM256 48.00512000000003c0-26.39872 21.6064-48.00512 48.00512-48.00512l160.01024 0c26.39872 0 48.00512 21.6064 48.00512 48.00512l0 160.01024c0 26.39872-21.6064 48.00512-48.00512 48.00512l-79.99488 0 0 64-128 0 0-271.99488zM448 128l0-64-128 0 0 64 128 0z"  horiz-adv-x="1024" />

    
    <glyph glyph-name="video" unicode="&#58997;" d="M384 512l320-224.01024-320-224.01024 0 448zM917.8112 666.9312c-22.2208 30.28992-53.16608 65.69984-87.18336 99.69664s-69.40672 64.96256-99.69664 87.18336c-51.56864 37.82656-76.5952 42.1888-90.9312 42.1888l-496.00512 0c-44.11392 0-79.99488-35.88096-79.99488-79.99488l0-864.01024c0-44.11392 35.88096-79.99488 79.99488-79.99488l736.01024 0c44.11392 0 79.99488 35.88096 79.99488 79.99488l0 624.00512c0 14.336-4.36224 39.34208-42.1888 90.9312zM785.36704 721.36704c30.69952-30.69952 54.80448-58.38848 72.58112-81.36704l-153.94816 0 0 153.94816c22.97856-17.77664 50.688-41.8816 81.36704-72.58112zM896-48.00512000000003c0-8.66304-7.33184-15.99488-15.99488-15.99488l-736.01024 0c-8.66304 0-15.99488 7.33184-15.99488 15.99488l0 864.01024c0 8.66304 7.33184 15.99488 15.99488 15.99488 0 0 495.96416 0 496.00512 0l0-224.01024c0-17.67424 14.336-32.01024 32.01024-32.01024l224.01024 0 0-624.00512z"  horiz-adv-x="1024" />

    
    <glyph glyph-name="excel" unicode="&#59205;" d="M913.82831314 684.08078581c-55.24882143 0-110.38007917 0-165.62739385 0 0-27.56713565 0-55.24731466 0-82.81294353 55.24580641 0 110.37706563 0 165.62739385 0C913.82831314 628.8319629299999 913.82831314 656.5136487 913.82831314 684.08078581zM1032.2494357 103.79332199999999c-0.11454866 205.25533969-0.35871963 410.52273798 0.23211234 615.89413459-0.81842251 20.11391069 0.60288909 42.35451509-11.58904869 59.86997205-17.38583467 11.94475475-39.39734174 10.52344167-59.39067372 11.35693634-118.42262933-0.59083197-236.84375188-0.35871963-355.2633662-0.3587196 0 31.58539718 0 63.057751 0 94.64616318l-70.28037185 0c-181.47887355-32.061679-363.07681754-63.1738079-544.67928479-94.76221863 0-276.00747302 0-552.01494607 0-828.0224191 180.53083021-31.58539718 361.18977298-61.87910209 541.4915044-94.64465493l73.46815078 0c0 35.49212212 0 70.98273743 0 106.4763678 122.68053853 0.23211234 245.35354174-0.35871963 367.92405192 0 19.75519108 0.8319879 49.33145822 1.41980484 54.06866429 26.0312739C1035.4372161 34.230389400000035 1031.66312553 69.36379190000002 1032.2494357 103.79332199999999zM339.68731282 191.33141448000003c-20.11541893 49.33447178-44.59575894 97.01401282-59.03798417 148.60027878-16.07907172-48.03976596-39.03711535-93.35145735-57.48705025-140.43112138-25.91672524 0.35871963-51.82892868 1.42131309-77.73058178 2.48390654 30.40976182 59.50974565 59.74185799 119.48371602 91.09514136 178.63624887-26.61758407 60.9340723-55.84719021 120.67442207-83.28922682 181.2497762 26.03127391 1.53736853 52.04898389 3.07323027 78.07875102 4.49303658 17.63301916-46.25822795 36.91494196-91.91657891 51.46870229-139.36702117 15.61032375 50.27799478 38.92256522 97.60182977 58.9113769 146.23092093 26.73514775 1.89307459 53.595396 3.54800678 80.44509388 4.85326297-31.58690395-64.71268467-63.28835655-129.43290466-95.4645857-193.8999116 32.53494875-66.25758851 65.77376988-132.02985163 98.4232673-198.2889484C396.58805143 187.55430888 368.20098501 189.32379119999996 339.68731282 191.33141448000003zM996.64276493 9.737990800000034c-130.13677852 0-260.27657058 0-390.40581226 0 0 23.66041071 0 47.32232821 0 70.98424569 31.58388893 0 63.05624421 0 94.64314815 0 0 27.56562887 0 55.24731466 0 82.81294352-31.58690395 0-63.05925923 0-94.64314815 0 0 15.73542425 0 31.58539718 0 47.32081996 31.58388893 0 63.05624421 0 94.64314815 0 0 27.56562887 0 55.24882143 0 82.81294354-31.58690395 0-63.05925923 0-94.64314815 0 0 15.73391601 0 31.58841072 0 47.32232821 31.58388893 0 63.05624421 0 94.64314815 0 0 27.56562887 0 55.24731466 0 82.81294354-31.58690395 0-63.05925923 0-94.64314815 0 0 15.73542425 0 31.58690395 0 47.32081994 31.58388893 0 63.05624421 0 94.64314815 0 0 27.56713565 0 55.24731466 0 82.81294354-31.58690395 0-63.05925923 0-94.64314815 0 0 15.73542425 0 31.58841072 0 47.32383498 31.58388893 0 63.05624421 0 94.64314815 0 0 27.56562887 0 55.24580641 0 82.81294354-31.58690395 0-63.05925923 0-94.64314815 0 0 23.66041071 0 47.32081996 0 70.98273743 130.13074995 0 260.27054201 0 390.40581226 0C996.64276493 506.62167912 996.64276493 258.17983495 996.64276493 9.737990800000034zM913.82831314 553.94249906c-55.24882143 0-110.38007917 0-165.62739385 0 0-27.56562887 0-55.24580641 0-82.81294355 55.24580641 0 110.37706563 0 165.62739385 0C913.82831314 498.69518587 913.82831314 526.3768702 913.82831314 553.94249906zM913.82831314 423.80722879c-55.24882143 0-110.38007917 0-165.62739385 0 0-27.56562887 0-55.24731466 0-82.81294353 55.24580641 0 110.37706563 0 165.62739385 0C913.82831314 368.55991414000005 913.82831314 396.24159993 913.82831314 423.80722879zM913.82831314 293.67045029999997c-55.24882143 0-110.38007917 0-165.62739385 0 0-27.5641221 0-55.24731466 0-82.81294356 55.24580641 0 110.37706563 0 165.62739385 0C913.82831314 238.42313563000005 913.82831314 266.10632818 913.82831314 293.67045029999997zM913.82831314 163.53518000999998c-55.24882143 0-110.38007917 0-165.62739385 0 0-27.56562887 0-55.24731466 0-82.81294352 55.24580641 0 110.37706563 0 165.62739385 0C913.82831314 108.28786535999996 913.82831314 135.96955115000003 913.82831314 163.53518000999998z"  horiz-adv-x="1024" />

    
    <glyph glyph-name="music" unicode="&#59209;" d="M912 678.857143q16-16 27.428571-43.428571t11.428571-50.285714l0-658.285714q0-22.857143-16-38.857143t-38.857143-16l-768 0q-22.857143 0-38.857143 16t-16 38.857143l0 914.285714q0 22.857143 16 38.857143t38.857143 16l512 0q22.857143 0 50.285714-11.428571t43.428571-27.428571z m-253.714286 139.428571l0-214.857143 214.857143 0q-5.714286 16.571429-12.571429 23.428571l-178.857143 178.857143q-6.857143 6.857143-23.428571 12.571429z m219.428571-873.142857l0 585.142857-237.714286 0q-22.857143 0-38.857143 16t-16 38.857143l0 237.714286-438.857143 0 0-877.714286 731.428571 0z m-450.285714 465.142857q11.428571-4.571429 11.428571-17.142857l0-310.857143q0-12.571429-11.428571-17.142857-4.571429-1.142857-6.857143-1.142857-6.857143 0-13.142857 5.142857l-94.857143 95.428571-74.857143 0q-8 0-13.142857 5.142857t-5.142857 13.142857l0 109.714286q0 8 5.142857 13.142857t13.142857 5.142857l74.857143 0 94.857143 95.428571q9.142857 8.571429 20 4z m238.285714-393.714286q17.714286 0 28.571429 13.714286 73.714286 90.857143 73.714286 207.428571t-73.714286 207.428571q-9.142857 12-24.571429 13.714286t-26.857143-8q-12-9.714286-13.428571-24.857143t8.285714-27.142857q57.142857-70.285714 57.142857-161.142857t-57.142857-161.142857q-9.714286-12-8.285714-27.142857t13.428571-24.285714q10.285714-8.571429 22.857143-8.571429z m-120.571429 84.571429q15.428571 0 26.857143 11.428571 49.714286 53.142857 49.714286 125.142857t-49.714286 125.142857q-10.285714 10.857143-25.714286 11.428571t-26.285714-9.714286-11.428571-25.428571 10.285714-26.571429q29.714286-32.571429 29.714286-74.857143t-29.714286-74.857143q-10.857143-11.428571-10.285714-26.571429t11.428571-25.428571q11.428571-9.714286 25.142857-9.714286z"  horiz-adv-x="1024" />

    
    <glyph glyph-name="txt" unicode="&#59274;" d="M130.5711195 384.37490347c0 139.70143459-0.01629981 279.40403427 0.00814991 419.10546887 0.00931385 53.85213952 33.6248411 87.71333234 87.1346779 87.72613916 136.97814869 0.03376469 273.95629739-0.05239353 410.93328099 0.17930127 7.70297629 0.01280683 12.88176071-2.37865529 18.07451591-7.90323428 78.62833721-83.63597027 157.51747811-167.02627499 236.02938539-250.7705253 3.72341533-3.97140992 6.37451491-10.69987157 6.38266595-16.14877241 0.31668793-217.91877689 0.30970197-435.83871659 0.23868075-653.75749347-0.01629981-50.40699051-34.66804907-84.88060245-85.26132679-84.89690226-196.12783047-0.06403641-392.25449586-0.0663643-588.38232633 0.00116394-50.51061248 0.01746489-85.09948928 34.56792007-85.12859705 85.02264605C130.51756203 103.41537109000001 130.5711195 243.89455531 130.5711195 384.37490347zM597.31372032 298.12392505c-20.03402525 0-38.14812786 0.29223822-56.23079367-0.33997369-2.48344121-0.08732217-5.75394589-4.36494222-7.04049266-7.39210923-6.22665045-14.64333881-11.9037531-29.51953635-17.76830692-44.31656277-2.84902969-7.18602923-5.68408861-14.37787933-9.46688341-23.94838471-12.29495523 24.8134565-22.9703771 46.78253909-34.16623787 68.48383545-1.63467037 3.16804665-5.66662371 7.08822813-8.72289848 7.20582201-17.74851413 0.68344149-35.53661383 0.33415282-54.85576192 0.33415282 2.40892701-4.73402368 3.99935374-8.13492907 5.82496824-11.40310586 16.10336483-28.82445312 31.90168462-57.82937145 48.6000037-86.30569984 4.83182478-8.24088007 4.2124197-13.89702599-0.95239282-21.62794496-22.23221419-33.27788146-43.76468707-67.02497337-65.51371776-100.62536476-2.02936661-3.13428195-3.79443769-6.43971641-6.56895317-11.17956096 18.23868245 0 34.83570745 0.37956039 51.40129792-0.16649444 7.83686997-0.25730958 12.58719346 2.03635257 16.87762148 8.96623616 14.68408946 23.71901895 30.18900594 46.92924075 46.23066339 71.64140317 13.48835783-24.9194075 26.10582414-48.4102235 38.96080498-71.76947598 1.75226425-3.18434645 4.61293682-8.08253667 7.099871-8.16869376 19.48797042-0.67878457 39.00970553-0.37606741 60.05666703-0.37606741-3.20414037 5.28939235-5.12173397 8.61461959-7.19068615 11.84437361-21.79560334 34.03118023-43.41306937 68.17995435-65.605698 101.95033202-4.30090581 6.54450233-4.30439879 11.07943197-0.21306595 17.64372707 13.7631323 22.08667762 26.81487929 44.61578695 40.10297913 66.99819464C584.2596443 275.82185358000004 590.26158478 286.12237198 597.31372032 298.12392505zM327.06686635 67.55391942999995c0 61.66455865 0 122.44192483 0 184.46042908 21.54295182 0 41.90763577 0 62.05226894 0 0 15.88913493 0 30.50918798 0 45.4564079-57.50453248 0-114.38500295 0-171.33882368 0 0-15.59922461 0-30.49405213 0-46.63001657 20.38797085 0 39.97024939 0 60.28370489 0 0-61.75537379 0-122.25330859 0-183.28565533C294.24073159 67.55391942999995 309.63853426 67.55391942999995 327.06686635 67.55391942999995zM740.3415461 67.55741240999998c0 61.66223075 0 122.44308878 0 184.46625109 21.54993664 0 41.91695075 0 62.04295509 0 0 15.89146283 0 30.51384491 0 45.43545003-57.51501141 0-114.39897486 0-171.34115271 0 0-15.62018247 0-30.52548779 0-46.63700252 21.15407645 0 41.52109056 0 62.61578752 0 0-61.72393813 0-122.22420195 0-183.2646986C709.06392349 67.55741240999998 723.68514048 67.55741240999998 740.3415461 67.55741240999998zM798.38398237 634.3828150100001c-51.36636928 54.48085845-100.49263502 106.58539065-151.70648064 160.90557667 0-49.94010795-0.19676615-96.48629533 0.15252252-143.02782578 0.07684323-10.31681821 8.14308011-17.13143694 19.52057116-17.72406329 9.30853888-0.48434631 18.66132139-0.14902955 27.99430998-0.15135858C728.05124665 634.37815808 761.75875299 634.3828150100001 798.38398237 634.3828150100001z"  horiz-adv-x="1024" />

    
    <glyph glyph-name="pdf" unicode="&#59277;" d="M632.00028445 32l0-160 192 192-160 0c-17.664 0-32-14.336-32-32zM888.00028445 896l-667.99957334 0c-26.49543111 0-48.00056889-21.48807111-48.00056889-48.00056889l667.99957333 0c17.67992889 0 32-14.32007111 32-32l0-667.66392889c26.39985778 0 47.77642667 21.31171555 47.96757334 47.66378667l0.03185778 0 0 667.99957333c0 17.67992889-14.32007111 32-32 32zM270.62385778 267.83971555000005c0.55978667-0.86357333 5.43971555-4.06414222 13.76028444-4.06414222 5.77649778 0 11.87157333 1.536 17.61621333 4.41571556 5.34414222 2.68743111 15.66378667 9.83950222 33.31185778 28.76757333-9.66428445-2.52814222-18.84842667-5.12-27.392-7.72778667-29.88828445-9.16821333-37.02442667-19.2-37.29635555-21.39249777zM474.51249778 433.24757333l-0.52792889-0.92842666-0.27192889 0.512c-17.12014222-28.01550222-37.08814222-57.95157333-56.68750222-85.05571556l1.44042667 0.30378667-0.81578667-1.024c36.46350222 6.06435555 72.30350222 10.11143111 104.27164444 11.79192889l-0.81578667 0.99214222 1.13550223 0c-17.53656889 23.64757333-34.06392889 49.08828445-47.72750223 73.40828444zM485.43971555 524.3357866700001c11.87157333 46.57607111-1.45635555 73.728-7.2954311 75.98421333-0.91249778-1.10364445-10.20814222-13.18456889-11.6485689-50.81543111-0.33564445-8.91221333 1.47228445-23.552 10.06364445-46.41564444 6.44778667 13.13564445 8.36835555 19.21592889 8.88035555 21.248zM641.98428445 311.53607110999997c-6.12807111 4.39978667-19.90428445 11.008-49.47171556 14.24042667 7.10428445-7.21578667 13.63171555-13.07192889 19.2-17.24757333 25.50442667-19.02364445 38.75157333-21.08757333 43.264-21.08757334 1.64750222 0 2.49628445 0.27192889 2.70449778 0.38343111 0.62350222 1.90350222-1.88757333 13.79214222-15.69564445 23.71242667zM792.00028445 800l-656.0005689 0c-17.664 0-32-14.32007111-32-32l0-864c0-17.664 14.336-32 32-32l464.0005689 0 0 192c0 17.664 14.336 32 32 32l192 0 0 672c0 17.67992889-14.336 32-32 32zM687.67971555 277.58364444999995c-4.44757333-13.85585778-16.68778667-22.12750222-32.70428444-22.12750223-17.00750222 0-38.01656889 9.23192889-62.41621333 27.43978667-15.43964445 11.53592889-32.22414222 29.74378667-44.92743111 44.75221333-45.58392889-0.512-103.19985778-7.23171555-159.98407112-18.67207111-29.72785778-37.19964445-53.68035555-60.52750222-71.24764444-69.376-10.19221333-5.12-21.26392889-7.84042667-32.01592889-7.84042666-23.96842667 0-42.64049778 12.97635555-45.42350222 31.55171555-2.048 13.66357333 2.97642667 39.15207111 59.58428445 56.49635555 20.91235555 6.4 45.42350222 12.65550222 71.19985777 18.12821334 29.39221333 37.85614222 62.72 87.23228445 87.26414223 129.24814222-15.74456889 33.87164445-23.31192889 61.93607111-22.48021334 83.50378667 2.816 73.56757333 31.87143111 81.50357333 44.25614222 81.50357333 10.22407111 0 19.99985778-5.32821333 27.52056889-15.00842666 13.04007111-16.78449778 22.55985778-52.09543111 10.14442667-100.80028445-2.68743111-10.57564445-10.496-27.48757333-23.24821334-50.36828445 17.71178667-34.57592889 43.10357333-73.40828445 69.60014223-106.44821333 45.79214222-0.87950222 78.70350222-8.30350222 97.87164444-22.07971555 22.14456889-15.88792889 33.24814222-40.52764445 27.00856889-59.904z"  horiz-adv-x="1024" />

    
    <glyph glyph-name="ppt" unicode="&#59316;" d="M841.69707109 506.98039873c-4.37999468 81.98246242-73.46513722 151.19722577-155.69176911 154.97583813-0.24115594-51.70232289-0.11454866-103.51919297-0.11454865-155.33455774C737.82217205 506.62167912 789.75359228 506.38956677 841.69707109 506.98039873zM1028.25981318 732.34814233c2.72958428 27.20841604-18.5750354 48.38492166-45.7849582 45.78646646-126.34761578 1.89608813-252.93638752-0.12509902-379.40006021 0.59083196 0 35.49061534 0 70.98273743 0 106.47636781l-67.07751928 0c-182.78262293-31.11363566-365.32559671-63.29137157-547.87912233-94.87676876 0-275.89292437-0.11756369-551.9003974 0-827.90787044 180.41628007-31.69994583 361.07522433-61.75249481 541.36489713-94.64465494l73.59174301 0c0 39.39734174 0 78.90923214 0 118.30506567 118.41961433 0 236.72920174 0.23060556 355.03426885-0.35570462 20.22996761 0.94352302 42.6966558-0.70538062 59.97095535 11.83020463 13.72629422 21.17650417 10.17979422 47.67953956 11.35693632 71.57356942C1027.78654489 290.24151542000004 1030.27044997 511.36039341 1028.25981318 732.34814233zM335.10987188 337.20512253000004c-26.8496979-13.72478598-57.61667107-11.83171287-86.83572539-10.88517483-0.11454866-46.25973473-0.23814092-92.51946947-0.11454864-138.76563882-23.42679013 2.00913003-46.97415895 4.01976831-70.39492052 5.91434965-1.06259347 126.34761578-1.30374941 252.8203306 0.11756369 379.16794639 64.23338633-3.07323027 142.08304004 25.44044193 195.31820966-22.71236591C424.19588321 488.04363016 410.70471635 374.24365822000004 335.10987188 337.20512253000004zM993.48211381 21.56970365999996c-130.13376349 0-260.27054201 0-390.40581226 0 0 31.58539718 0 63.057751 0 94.64314816 94.64616318 0 189.29232487 0 283.9354745 0 0 15.73693102 0 31.58690395 0 47.32232819-94.64314815 0-189.28931134 0-283.9354745 0 0 19.7536843 0 39.39734174 0 59.15253283 94.64616318 0 189.29232487 0 283.9354745 0 0 15.73391601 0 31.58690395 0 47.3223282-94.64314815 0-189.28931134 0-283.82092437 0-0.11454866 23.18714244-0.11454866 46.37277663-0.24115595 69.56142583 46.86262384-14.54622351 100.21234358-14.19956251 142.09359041 13.96895695 45.31168994 26.84818963 68.97360742 78.075736 72.87731882 129.1887337-51.94347882 0.34364747-103.87188401 0.22909879-155.69176912 0.22909879-0.12359223 51.45965871 0.58932518 102.928361-1.06259347 154.27045751-19.40551505-3.78916273-38.80801655-7.81194458-58.08993934-11.9477683 0 39.27073447 0 78.66807622 0 117.94785428 130.13677852 0 260.27355703 0 390.40581224 0C993.48211381 502.71646094 993.48211381 262.08505311 993.48211381 21.56970365999996zM248.15959635 508.63231591c-0.3557046-39.74400275-0.59233873-79.38400721 1.89608814-119.01195453 23.53531021 2.83056756 54.05660714 0.4717615 67.55078756 24.83905964 11.23032908 23.90307342 11.94626154 54.4273839-1.54791888 77.60246772C300.3321725 513.95583359 271.46279423 509.69340261 248.15959635 508.63231591z"  horiz-adv-x="1024" />

    
    <glyph glyph-name="word" unicode="&#59347;" d="M1033.59086622 744.61996414c2.4823983 26.97479691-18.6925976 47.91014516-45.65835242 45.18508415-126.47271481 2.01968038-252.93488074 0-379.52515922 0.71593099 0 31.58539718 0 63.057751 0 94.64616317l-70.75213335 0c-181.36281809-32.30584996-362.84169164-63.1738079-544.20450826-94.87676875 0-275.89292437-0.11605692-551.90190417 0-827.90937722 180.41477329-31.58539718 360.94711028-61.75249481 541.01672933-94.64465492l73.94141907 0c0 31.58841072 0 63.05925923 0 94.64465492 118.42112256 0 236.7261882 0.23060556 355.14731074-0.35570458 20.11541893 0.94653657 42.46906523-0.58932518 59.74336478 11.71414918 13.84084289 21.17650417 10.29283611 47.67953956 11.48203685 71.57206264C1033.11608969 278.37513645 1035.60150301 511.55331787 1033.59086622 744.61996414zM388.12046449 215.67459684999994c-19.75519108-10.29283611-49.33145822 0.47477505-72.76277015-1.17714213-15.73542425 78.30784982-34.06930225 156.15448703-48.1407507 234.83160682-13.85290003-76.4253256-31.82956666-152.14376381-47.68104782-228.09582111-22.71387268 1.18920074-45.55435412 2.59845522-68.3842837 4.14788235-19.63913564 104.10550311-42.71022116 207.49658353-61.04711418 311.84625761 20.22996761 0.94653657 40.586541 1.7800327 60.8165086 2.48239832 12.1768671-75.36273214 26.01771001-150.36674612 36.67077248-225.84553369 16.68346759 77.3733704 33.71209087 154.74523255 50.27950157 232.11860295 22.48176033 1.29169079 44.9529703 2.24124238 67.4362389 3.43044312 15.73542425-79.85426193 31.81750953-159.59698875 48.8596967-239.09554461 13.3675746 82.09851933 28.15495406 163.96492483 42.47057201 245.9579376 23.66041071 0.81993075 47.32081996 2.12518692 70.86668202 3.54649854C440.76781569 445.19172957 417.33951881 329.60117604000004 388.12046449 215.67459684999994zM998.81467508-2.126879919999965c-130.13527027 0-260.27204878 0-390.4073205 0 0 31.58539718 0 63.057751 0 94.64465492 102.56964138 0 205.02473558 0 307.59437698 0 0 15.73542425 0 31.58539718 0 47.32081996-102.56964138 0-205.02473558 0-307.59437698 0 0 19.75669933 0 39.39734174 0 59.15403959 102.56964138 0 205.02473558 0 307.59437698 0 0 15.73240924 0 31.58539718 0 47.32081997-102.56964138 0-205.02473558 0-307.59437698 0 0 19.75669933 0 39.39734174 0 59.15102604 102.56964138 0 205.02473558 0 307.59437698 0 0 15.73391601 0 31.58841072 0 47.32232821-102.56964138 0-205.02473558 0-307.59437698 0 0 19.7536843 0 39.3958335 0 59.15253282 102.56964138 0 205.02473558 0 307.59437698 0 0 15.73391601 0 31.58539718 0 47.32081995-102.56964138 0-205.02473558 0-307.59437698 0 0 19.75669933 0 39.39734174 0 59.1540396 102.56964138 0 205.02473558 0 307.59437698 0 0 15.73542425 0 31.58539718 0 47.32081995-102.56964138 0-205.02473558 0-307.59437698 0 0 19.75669933 0 39.39734174 0 59.15102604 102.56964138 0 205.02473558 0 307.59437698 0 0 15.73693102 0 31.58841072 0 47.32232821-102.56964138 0-205.02473558 0-307.59437698 0 0 27.56713565 0 55.24731466 0 82.81294353 130.13527027 0 260.27204878 0 390.4073205 0C998.81467508 502.68330161 998.81467508 250.21867562 998.81467508-2.126879919999965z"  horiz-adv-x="1024" />

    


  </font>
</defs>
</svg>
